<?xml version="1.0" encoding="UTF-8"?>
<svg version="1.1" xmlns="http://www.w3.org/2000/svg" width="1024" height="1024">
<path d="M0 0 C337.92 0 675.84 0 1024 0 C1024 337.92 1024 675.84 1024 1024 C686.08 1024 348.16 1024 0 1024 C0 686.08 0 348.16 0 0 Z " fill="#FEFEFE" transform="translate(0,0)"/>
<path d="M0 0 C1.2734375 2.37890625 1.2734375 2.37890625 2.375 5.5625 C2.79523438 6.738125 3.21546875 7.91375 3.6484375 9.125 C3.86725586 9.75535156 4.08607422 10.38570313 4.31152344 11.03515625 C5.4894186 14.3967521 6.74755962 17.72811711 8 21.0625 C8.25523437 21.74610596 8.51046875 22.42971191 8.7734375 23.1340332 C10.60193941 28.01023265 12.55967758 32.81952692 14.5859375 37.6171875 C18.78071481 47.65220724 22.90748603 57.73220671 26.5 68 C29.69314962 77.12023336 33.3783711 86.04378702 37 95 C38.37813716 98.41541139 39.7532008 101.83203803 41.125 105.25 C41.45773926 106.07902832 41.79047852 106.90805664 42.13330078 107.76220703 C44.48226435 113.64100216 46.72559982 119.553499 48.92456055 125.48974609 C50.71479072 130.30072265 52.65774005 135.03056782 54.65625 139.7578125 C56.30448904 143.73466833 57.87721653 147.73796345 59.4375 151.75 C59.73575684 152.51489746 60.03401367 153.27979492 60.34130859 154.06787109 C61.79533164 157.81680748 63.21699534 161.57283829 64.5703125 165.359375 C69.80698889 180.28044948 69.80698889 180.28044948 80 192 C88.06207615 195.07824726 98.32416886 195.40941728 106.625 193 C110.97169031 190.42418352 112.58096944 187.72234442 114 183 C114.57308342 177.75041728 114.52711637 172.52762028 114.48583984 167.25585938 C114.48798822 165.66176543 114.49186965 164.06767303 114.49734497 162.47358704 C114.5070046 158.16152199 114.49177727 153.84987364 114.47143888 149.53785896 C114.45381281 145.01592646 114.45739405 140.49400576 114.4581604 135.9720459 C114.45628982 128.37956817 114.43895928 120.78725073 114.41162109 113.19482422 C114.38017294 104.42882489 114.36962508 95.66300097 114.3710922 86.89694929 C114.37244543 77.54728356 114.35855026 68.19768503 114.34019899 58.84803963 C114.33594572 56.16144173 114.33451791 53.47485474 114.33372116 50.78825378 C114.33170501 46.55942101 114.31943634 42.33073421 114.29938889 38.10194969 C114.29357122 36.55403221 114.29108157 35.00609792 114.29224396 33.45816994 C114.98534938 20.98722736 114.98534938 20.98722736 110.25 10.125 C103.97991051 6.98995525 97.90560365 6.46692694 91 6 C91 4.02 91 2.04 91 0 C103.25774783 -0.06983073 115.51544751 -0.12297814 127.77335453 -0.15543652 C133.46656943 -0.17102306 139.1596472 -0.19213182 144.8527832 -0.22631836 C150.35765855 -0.25916363 155.86240284 -0.27690559 161.3673687 -0.28463173 C163.45668027 -0.2901304 165.54598552 -0.30086651 167.63524055 -0.31719017 C190.93555377 -0.49182641 211.17848591 2.83488991 229.1640625 18.9375 C239.0014768 29.33829045 242.36364614 42.09728862 242.25 56 C242.25773437 56.94617188 242.26546875 57.89234375 242.2734375 58.8671875 C242.22884156 74.96632363 235.24433501 88.01514047 224.0625 99.2109375 C220.12800237 102.92547892 215.87600358 105.66874084 211 108 C209.845 108.556875 208.69 109.11375 207.5 109.6875 C206.345 110.120625 205.19 110.55375 204 111 C203.3306543 111.25523437 202.66130859 111.51046875 201.97167969 111.7734375 C194.54922392 114.3200805 187.54129682 114.41501706 179.75 114.3125 C178.50992187 114.31572266 177.26984375 114.31894531 175.9921875 114.32226562 C170.17871788 114.28788489 165.48913736 114.06949747 160 112 C160 110.02 160 108.04 160 106 C161.80984375 105.92652344 161.80984375 105.92652344 163.65625 105.8515625 C165.27085306 105.77646468 166.88543539 105.70091997 168.5 105.625 C169.29148437 105.5940625 170.08296875 105.563125 170.8984375 105.53125 C181.92064804 104.98917407 192.34941857 102.17416567 200.25 94.0625 C208.95374846 83.59328532 211.23076225 71.34242288 211.375 58.125 C211.41238281 56.86429687 211.44976563 55.60359375 211.48828125 54.3046875 C211.60986605 41.17352916 207.63885746 29.98517291 199 20 C189.99737221 11.17133603 176.79881414 9.81657767 164.8125 9.875 C164.03841797 9.87113281 163.26433594 9.86726563 162.46679688 9.86328125 C157.84578251 9.87085048 153.28683954 10.10987348 148.68237305 10.50830078 C147.61448044 10.59991486 146.54658783 10.69152893 145.44633484 10.78591919 C144.23539909 10.89188919 144.23539909 10.89188919 143 11 C143.03718376 33.15756605 143.09706979 55.31496752 143.18390274 77.47239685 C143.22369384 87.76073464 143.256086 98.04899593 143.27099609 108.33740234 C143.28401222 117.30590817 143.31097594 126.27424568 143.35461307 135.24265671 C143.3772287 139.99037304 143.39291062 144.73788176 143.39188385 149.48565674 C143.3911373 153.95746097 143.40908599 158.42880625 143.44116783 162.90049171 C143.44966331 164.53869343 143.45141913 166.17694664 143.44580269 167.81516075 C143.31691327 180.65277891 143.31691327 180.65277891 149.41119766 191.63752747 C152.04598887 193.89698452 155.35956498 194.11886124 158.6875 194.6875 C159.7403418 194.88182617 159.7403418 194.88182617 160.81445312 195.08007812 C162.54107423 195.39721261 164.27031635 195.70001797 166 196 C166 197.32 166 198.64 166 200 C118.15 200 70.3 200 21 200 C21 198.35 21 196.7 21 195 C21.72445312 194.96261719 22.44890625 194.92523437 23.1953125 194.88671875 C28.74573714 194.50928987 33.22869628 194.13901561 38 191 C40.25158337 186.49683326 39.77992722 180.79613694 38.45507812 176.04638672 C37.07558296 171.94404946 35.45686253 167.94275611 33.79614258 163.94750977 C32.73181898 161.34398038 31.75807839 158.71001623 30.77905273 156.07348633 C29.95591805 153.88267378 29.10487936 151.70441798 28.24609375 149.52734375 C27.94896484 148.77259766 27.65183594 148.01785156 27.34570312 147.24023438 C26.73837476 145.7003631 26.1289862 144.16130285 25.51757812 142.62304688 C25.22173828 141.86958984 24.92589844 141.11613281 24.62109375 140.33984375 C24.3573999 139.67331787 24.09370605 139.00679199 23.82202148 138.32006836 C22.73797292 135.2604564 21.89173931 132.12108757 21 129 C-3.42 129 -27.84 129 -53 129 C-53.66 132.3 -54.32 135.6 -55 139 C-55.33 139.99 -55.66 140.98 -56 142 C-56.66 142 -57.32 142 -58 142 C-58.33837891 143.82724609 -58.33837891 143.82724609 -58.68359375 145.69140625 C-60.35218439 153.2081498 -63.53145822 160.22048272 -66.45507812 167.31835938 C-71.02910416 178.43567855 -71.02910416 178.43567855 -69.875 190 C-65.5494763 194.61389194 -58.97387429 194.90962295 -53 196 C-53 197.32 -53 198.64 -53 200 C-70.82 200 -88.64 200 -107 200 C-107 198.35 -107 196.7 -107 195 C-106.29875 194.86464844 -105.5975 194.72929688 -104.875 194.58984375 C-96.92798571 192.78664893 -91.60521295 189.89910839 -86.7265625 183.26953125 C-84.61687327 179.80361323 -83.19141282 176.08089464 -81.8359375 172.26953125 C-80.86800392 169.64163681 -79.78266157 167.07746624 -78.6875 164.5 C-76.46768566 159.21472775 -74.43518734 153.87225016 -72.4465332 148.49731445 C-70.0221361 141.98131528 -67.42730048 135.53749466 -64.82763672 129.08984375 C-62.75048405 123.92253783 -60.78397982 118.73202185 -58.91796875 113.484375 C-57.50788985 109.66816146 -55.91232877 105.9334942 -54.3359375 102.18359375 C-49.60835613 90.91757381 -45.3369986 79.55148765 -41.33496094 68.00708008 C-39.28592746 62.1939813 -37.00811186 56.7144279 -34.09643555 51.27783203 C-32.55152607 48.06830065 -31.64970821 44.76671082 -30.7734375 41.32421875 C-30 39 -30 39 -28.5625 36.6484375 C-26.70777818 33.50468401 -25.71601012 30.41921349 -24.625 26.9375 C-22.72011343 21.00932393 -20.60863321 15.24052592 -18.09765625 9.53515625 C-16.89073023 6.85413138 -16.89073023 6.85413138 -15.8125 3.375 C-13.23031254 -0.00855598 -10.55414868 -0.18776696 -6.47265625 -0.87109375 C-2.26312802 -1.09054783 -2.26312802 -1.09054783 0 0 Z " fill="#727373" transform="translate(517,412)"/>
<path d="M0 0 C25.08 0 50.16 0 76 0 C76 1.32 76 2.64 76 4 C75.443125 4.03738281 74.88625 4.07476562 74.3125 4.11328125 C67.2839604 4.71878044 61.52536706 5.85075144 56.0625 10.5 C52.7072452 14.56697552 52.86773171 17.80892996 52.84178162 22.92851257 C52.83684364 23.63753041 52.83190566 24.34654824 52.82681805 25.07705146 C52.81143076 27.45851044 52.80307911 29.83994243 52.79467773 32.22143555 C52.78510018 33.9262923 52.77509017 35.63114667 52.76467896 37.33599854 C52.73761057 41.96995541 52.71661147 46.60392248 52.69667697 51.2379148 C52.67482935 56.07861685 52.64743467 60.91928737 52.62062073 65.75996399 C52.57067728 74.92904078 52.52574457 84.09813505 52.48259836 93.26724607 C52.43324011 103.70486457 52.37831674 114.14245146 52.32291877 124.58003938 C52.20907336 146.05333013 52.10223989 167.52665107 52 189 C58.11609727 188.93028882 64.23156411 188.84193832 70.34716797 188.73754883 C72.42033796 188.70463882 74.49359027 188.67650581 76.56689453 188.65356445 C102.88610722 188.84204285 102.88610722 188.84204285 125.79296875 177.40625 C127.37058638 175.68668734 128.68538076 173.92733263 130 172 C130.48855469 171.32839844 130.97710937 170.65679688 131.48046875 169.96484375 C136.75858988 162.05444627 139.23257244 153.00885992 142 144 C143.98 144 145.96 144 148 144 C147.26259767 152.26709947 146.15111688 160.46616899 144.953125 168.67651367 C144.62628539 170.92864287 144.30917883 173.18201334 143.9921875 175.43554688 C143.77924548 176.90373293 143.56572268 178.37183489 143.3515625 179.83984375 C143.16416504 181.14300537 142.97676758 182.44616699 142.78369141 183.78881836 C141.82776118 188.92552877 140.37476255 193.959204 139 199 C93.46 199 47.92 199 1 199 C1 197.35 1 195.7 1 194 C1.88042969 193.89042969 2.76085937 193.78085937 3.66796875 193.66796875 C4.82941406 193.50941406 5.99085938 193.35085938 7.1875 193.1875 C8.33605469 193.03667969 9.48460937 192.88585937 10.66796875 192.73046875 C14.82197666 191.81980113 17.62008682 191.04643752 20.08433628 187.39190865 C23.86412014 179.93999435 23.55731381 172.36198533 23.50170898 164.21826172 C23.50549741 162.63224815 23.51100176 161.04623789 23.51808167 159.4602356 C23.53198308 155.17516907 23.52090515 150.89050644 23.50437045 146.60546255 C23.49046846 142.11108721 23.4969857 137.61673409 23.50050354 133.12234497 C23.50320105 125.57873055 23.48976777 118.03527567 23.46655273 110.49169922 C23.43992659 101.77958383 23.43820374 93.06773476 23.4499411 84.35559261 C23.46073125 75.95942024 23.45452334 67.56334387 23.44038582 59.16717911 C23.43463869 55.6003504 23.43469861 52.03359225 23.43945122 48.46676254 C23.44423419 44.26577548 23.43406489 40.06507901 23.41249657 35.86414719 C23.40694718 34.32548502 23.40644638 32.78679483 23.41144943 31.2481308 C23.41743672 29.14222344 23.4048331 27.03719441 23.38768005 24.93136597 C23.38525016 23.75486418 23.38282026 22.57836239 23.38031673 21.36620903 C22.85840092 16.74669702 21.43838382 12.86659936 18.56323242 9.13549805 C16.70918231 7.78875635 15.22428324 7.31958056 12.98828125 6.83203125 C12.23095703 6.66123047 11.47363281 6.49042969 10.69335938 6.31445312 C9.90767578 6.14880859 9.12199219 5.98316406 8.3125 5.8125 C7.11657227 5.54663086 7.11657227 5.54663086 5.89648438 5.27539062 C3.93314828 4.84039999 1.96683569 4.41888284 0 4 C0 2.68 0 1.36 0 0 Z " fill="#737474" transform="translate(264,413)"/>
<path d="M0 0 C0.66 0 1.32 0 2 0 C2.30292969 0.88300781 2.60585938 1.76601563 2.91796875 2.67578125 C4.94674602 8.48744782 6.99430952 14.17677428 9.625 19.75 C11.57145208 23.88469945 12.93042002 27.94574201 14.14916992 32.34130859 C15.01155574 35.0361096 16.08980946 37.47157005 17.30859375 40.0234375 C20.11414989 46.09891769 22.36143811 52.30991145 24.5625 58.625 C26.87943159 65.25166444 29.19366198 71.76281259 32.28100586 78.07568359 C33 80 33 80 33 84 C11.88 84 -9.24 84 -31 84 C-30.24153436 79.44920615 -29.63516762 76.75117911 -27.84765625 72.73046875 C-25.68483289 67.69683349 -23.69953656 62.62812902 -21.80859375 57.48828125 C-21.39645126 56.37028641 -21.39645126 56.37028641 -20.97598267 55.22970581 C-19.8411896 52.14544817 -18.71094258 49.05953546 -17.58129883 45.97338867 C-12.00700756 30.76337719 -12.00700756 30.76337719 -8.8605957 23.9440918 C-7.31735135 20.45789186 -6.10719891 16.85532272 -4.875 13.25 C-3.33694643 8.79358837 -1.80189699 4.35887463 0 0 Z " fill="#FCFCFB" transform="translate(500,447)"/>
<path d="M0 0 C2.97 0 5.94 0 9 0 C8.67 0.99 8.34 1.98 8 3 C9.4540625 3.185625 9.4540625 3.185625 10.9375 3.375 C12.4534375 3.684375 12.4534375 3.684375 14 4 C14.33 4.66 14.66 5.32 15 6 C10.05 5.01 5.1 4.02 0 3 C0 2.01 0 1.02 0 0 Z " fill="#777978" transform="translate(609,414)"/>
<path d="M0 0 C0.66 0.33 1.32 0.66 2 1 C1.27683594 1.65355469 1.27683594 1.65355469 0.5390625 2.3203125 C-3.32436286 5.96297069 -5.82400746 8.64270063 -7 14 C-7.75 12.4375 -7.75 12.4375 -8 10 C-5.92680809 5.62326152 -4.22261491 2.56373048 0 0 Z " fill="#D6D5D5" transform="translate(324,419)"/>
</svg>
